<svg width="31" height="36" viewBox="0 0 31 36" fill="none" xmlns="http://www.w3.org/2000/svg">
<path d="M28.3332 18V7.58171C28.3333 7.45015 28.3074 7.31986 28.2571 7.19831C28.2067 7.07676 28.1329 6.96634 28.0398 6.87337L22.7932 1.62671C22.6058 1.43912 22.3516 1.33361 22.0865 1.33337H2.6665C2.40129 1.33337 2.14693 1.43873 1.9594 1.62627C1.77186 1.8138 1.6665 2.06816 1.6665 2.33337V33.6667C1.6665 33.9319 1.77186 34.1863 1.9594 34.3738C2.14693 34.5614 2.40129 34.6667 2.6665 34.6667H13.3332M8.33317 14.6667H21.6665M8.33317 8.00004H14.9998M8.33317 21.3334H13.3332M24.9232 26.2334L26.5898 24.5667C26.7634 24.393 26.9694 24.2553 27.1962 24.1613C27.4229 24.0673 27.666 24.0189 27.9115 24.0189C28.157 24.0189 28.4001 24.0673 28.6268 24.1613C28.8536 24.2553 29.0597 24.393 29.2332 24.5667C29.5834 24.9171 29.7801 25.3922 29.7801 25.8875C29.7801 26.3829 29.5834 26.858 29.2332 27.2084L27.5665 28.875L24.9232 26.2317L19.9382 31.2167C19.6889 31.4667 19.5255 31.7895 19.4715 32.1384L19.0648 34.7334L21.6598 34.3284C22.0087 34.2744 22.3315 34.111 22.5815 33.8617L27.5648 28.875" stroke="white" stroke-width="1.5" stroke-linecap="round" stroke-linejoin="round"/>
</svg>
