<svg width="11" height="17" viewBox="0 0 11 17" fill="none" xmlns="http://www.w3.org/2000/svg">
<path d="M5.92214 6.88181H9.7221L9.29991 8.5707H5.92214V16.1707H4.23325V8.5707H0.855469V6.88181H4.23325V5.30101C4.23325 3.79537 4.39031 3.24901 4.68418 2.69844C4.97214 2.15445 5.41699 1.7096 5.96098 1.42164C6.51156 1.12777 7.05791 0.970703 8.56356 0.970703C9.00436 0.970703 9.39111 1.01293 9.7221 1.09737V2.65959H8.56356C7.44551 2.65959 7.1052 2.72546 6.75813 2.91124C6.50142 3.04804 6.31058 3.23888 6.17378 3.49559C5.988 3.84266 5.92214 4.18297 5.92214 5.30101V6.88181Z" fill="white" stroke="white" stroke-width="0.8"/>
</svg>
