<svg width="18" height="16" viewBox="0 0 18 16" fill="none" xmlns="http://www.w3.org/2000/svg">
<path d="M13.3181 3.07108C13.1349 3.07108 12.9558 3.1254 12.8035 3.22718C12.6512 3.32896 12.5324 3.47362 12.4623 3.64286C12.3923 3.81212 12.3739 3.99836 12.4097 4.17803C12.4454 4.3577 12.5336 4.52275 12.6631 4.65229C12.7927 4.78182 12.9577 4.87004 13.1374 4.90578C13.3171 4.94152 13.5034 4.92318 13.6725 4.85307C13.8418 4.78296 13.9864 4.66425 14.0882 4.51192C14.19 4.35961 14.2444 4.18052 14.2444 3.99733C14.2444 3.75167 14.1468 3.51608 13.9731 3.34237C13.7993 3.16866 13.5638 3.07108 13.3181 3.07108ZM16.8687 4.93902C16.8537 4.29859 16.7338 3.66496 16.5137 3.06336C16.3174 2.54862 16.0119 2.08252 15.6183 1.69714C15.2361 1.3015 14.7689 0.997956 14.2521 0.809484C13.6521 0.582678 13.0177 0.459987 12.3764 0.446703C11.5582 0.400391 11.2958 0.400391 9.19629 0.400391C7.09679 0.400391 6.83435 0.400391 6.01616 0.446703C5.37485 0.459987 4.74052 0.582678 4.14051 0.809484C3.62465 0.99987 3.15786 1.30314 2.77429 1.69714C2.37865 2.07935 2.0751 2.54654 1.88663 3.06336C1.65983 3.66337 1.53714 4.2977 1.52385 4.93902C1.47754 5.7572 1.47754 6.01964 1.47754 8.11914C1.47754 10.2186 1.47754 10.4811 1.52385 11.2993C1.53714 11.9405 1.65983 12.5749 1.88663 13.1749C2.0751 13.6918 2.37865 14.1589 2.77429 14.5411C3.15786 14.9351 3.62465 15.2384 4.14051 15.4288C4.74052 15.6556 5.37485 15.7783 6.01616 15.7916C6.83435 15.8379 7.09679 15.8379 9.19629 15.8379C11.2958 15.8379 11.5582 15.8379 12.3764 15.7916C13.0177 15.7783 13.6521 15.6556 14.2521 15.4288C14.7689 15.2404 15.2361 14.9368 15.6183 14.5411C16.0137 14.1572 16.3195 13.6906 16.5137 13.1749C16.7338 12.5733 16.8537 11.9397 16.8687 11.2993C16.8687 10.4811 16.915 10.2186 16.915 8.11914C16.915 6.01964 16.915 5.7572 16.8687 4.93902ZM15.4794 11.2066C15.4737 11.6966 15.385 12.1821 15.2169 12.6423C15.0936 12.9782 14.8957 13.2817 14.638 13.53C14.3876 13.7851 14.0847 13.9826 13.7504 14.1089C13.2901 14.277 12.8047 14.3657 12.3147 14.3713C11.5428 14.4099 11.2572 14.4176 9.22716 14.4176C7.19713 14.4176 6.91154 14.4176 6.13966 14.3713C5.63092 14.3809 5.12434 14.3025 4.64223 14.1398C4.32251 14.0071 4.0335 13.81 3.79316 13.5609C3.53697 13.3129 3.34149 13.0091 3.22198 12.6732C3.03353 12.2064 2.929 11.7099 2.91323 11.2066C2.91323 10.4348 2.86691 10.1492 2.86691 8.11914C2.86691 6.08911 2.86691 5.80352 2.91323 5.03164C2.91668 4.53074 3.00813 4.03434 3.18338 3.56508C3.31927 3.23927 3.52784 2.94885 3.79316 2.71602C4.02767 2.45062 4.31749 2.23984 4.64223 2.09852C5.11272 1.92873 5.60861 1.84 6.10879 1.83608C6.88066 1.83608 7.16626 1.78977 9.19629 1.78977C11.2263 1.78977 11.5119 1.78977 12.2838 1.83608C12.7738 1.8417 13.2592 1.93043 13.7195 2.09852C14.0702 2.2287 14.385 2.44034 14.638 2.71602C14.891 2.95312 15.0886 3.243 15.2169 3.56508C15.3885 4.0351 15.4773 4.53129 15.4794 5.03164C15.5179 5.80352 15.5257 6.08911 15.5257 8.11914C15.5257 10.1492 15.5179 10.4348 15.4794 11.2066ZM9.19629 4.15942C8.41346 4.16095 7.64865 4.39447 6.99849 4.8305C6.34834 5.26653 5.84201 5.88549 5.5435 6.60916C5.24498 7.33284 5.16766 8.12876 5.32132 8.89637C5.47498 9.66396 5.85271 10.3688 6.40679 10.9218C6.96088 11.4748 7.66644 11.8512 8.43434 12.0033C9.20224 12.1555 9.99801 12.0766 10.7211 11.7767C11.4442 11.4768 12.0622 10.9692 12.4969 10.3183C12.9317 9.66723 13.1637 8.90197 13.1637 8.11914C13.1648 7.59821 13.0628 7.08221 12.8636 6.60083C12.6646 6.11945 12.3722 5.68219 12.0035 5.31419C11.6348 4.94619 11.1969 4.65472 10.7152 4.45654C10.2334 4.25837 9.71722 4.15738 9.19629 4.15942ZM9.19629 10.6895C8.68792 10.6895 8.19098 10.5387 7.76828 10.2563C7.34559 9.97387 7.01614 9.57244 6.8216 9.10277C6.62706 8.6331 6.57615 8.11629 6.67533 7.61769C6.77452 7.11909 7.01931 6.6611 7.37878 6.30163C7.73825 5.94217 8.19624 5.69737 8.69484 5.59819C9.19344 5.49901 9.71025 5.54991 10.1799 5.74445C10.6496 5.93899 11.051 6.26844 11.3335 6.69113C11.6159 7.11383 11.7666 7.61077 11.7666 8.11914C11.7666 8.45669 11.7001 8.79092 11.571 9.10277C11.4418 9.41462 11.2525 9.69798 11.0138 9.93665C10.7751 10.1753 10.4918 10.3647 10.1799 10.4938C9.86807 10.623 9.53384 10.6895 9.19629 10.6895Z" fill="white"/>
</svg>
