<svg width="16" height="12" viewBox="0 0 16 12" fill="none" xmlns="http://www.w3.org/2000/svg">
<g clip-path="url(#clip0_101_917)">
<path d="M15.0349 3.5493C15.0349 3.5493 14.8946 2.55594 14.4628 2.11977C13.9161 1.54571 13.3048 1.54289 13.0245 1.50912C11.017 1.36279 8.00285 1.36279 8.00285 1.36279H7.99724C7.99724 1.36279 4.98313 1.36279 2.9756 1.50912C2.69522 1.54289 2.08398 1.54571 1.53724 2.11977C1.10545 2.55594 0.968064 3.5493 0.968064 3.5493C0.968064 3.5493 0.822266 4.71712 0.822266 5.88213V6.97397C0.822266 8.13899 0.96526 9.30681 0.96526 9.30681C0.96526 9.30681 1.10545 10.3001 1.53444 10.7363C2.08118 11.3104 2.79896 11.2907 3.1186 11.3526C4.26816 11.4623 8.00004 11.4961 8.00004 11.4961C8.00004 11.4961 11.017 11.4905 13.0245 11.347C13.3048 11.3132 13.9161 11.3104 14.4628 10.7363C14.8946 10.3001 15.0349 9.30681 15.0349 9.30681C15.0349 9.30681 15.1778 8.1418 15.1778 6.97397V5.88213C15.1778 4.71712 15.0349 3.5493 15.0349 3.5493ZM6.51683 8.29938V4.24999L10.3945 6.28172L6.51683 8.29938Z" fill="white"/>
</g>
<defs>
<clipPath id="clip0_101_917">
<rect width="16" height="11" fill="white" transform="translate(0 0.5)"/>
</clipPath>
</defs>
</svg>
